<?xml version="1.0" encoding="UTF-8"?>
<!-- Created with Inkscape (http://www.inkscape.org/) -->
<svg width="293.28" height="432" version="1.1" viewBox="0 0 293.28 432" xml:space="preserve" xmlns="http://www.w3.org/2000/svg" xmlns:xlink="http://www.w3.org/1999/xlink"><defs><linearGradient id="linearGradient453" x1="560" x2="560" y1="385" y2="25" gradientTransform="translate(216,2093)" gradientUnits="userSpaceOnUse"><stop stop-color="#212121" offset="0"/><stop stop-color="#595959" offset="1"/></linearGradient><linearGradient id="linearGradient454" x1="500" x2="500" y1="350" y2="60" gradientTransform="translate(215.35,2093)" gradientUnits="userSpaceOnUse"><stop stop-color="#424242" offset="0"/><stop stop-color="#010101" offset="1"/></linearGradient><radialGradient id="radialGradient454" cx="470" cy="63.811" r="128.5" gradientTransform="matrix(1,0,0,1.1323,216,2065.7)" gradientUnits="userSpaceOnUse"><stop offset="0"/><stop stop-opacity="0" offset="1"/></radialGradient><linearGradient id="linearGradient455" x1="-450.65" x2="-450.65" y1="-55" y2="10" gradientTransform="translate(-215.35,-2093)" gradientUnits="userSpaceOnUse"><stop stop-color="#942108" offset="0"/><stop stop-color="#e13e1b" offset=".42308"/><stop stop-color="#fb795b" offset=".77138"/><stop stop-color="#fe5631" offset="1"/></linearGradient><linearGradient id="linearGradient456" x1="-480.65" x2="-480.65" y1="-365" y2="-410" gradientTransform="translate(-215.35,-2103)" gradientUnits="userSpaceOnUse"><stop stop-color="#9d2910" offset="0"/><stop stop-color="#db3c19" offset=".22222"/><stop stop-color="#d83714" offset=".22222"/><stop stop-color="#f56b4c" offset=".72736"/><stop stop-color="#fd5e3b" offset=".83593"/><stop stop-color="#fa380e" offset="1"/></linearGradient><radialGradient id="radialGradient334" cx="1235.8" cy="225.45" r="140" gradientTransform="matrix(1.7314 -.0049507 .0070663 2.4713 -1439 1700.7)" gradientUnits="userSpaceOnUse"><stop stop-color="#616161" offset="0"/><stop stop-color="#252525" offset=".87471"/><stop stop-color="#1a1a1a" offset="1"/></radialGradient></defs><g transform="translate(-533.36 -2083)"><rect transform="scale(-1)" x="-767" y="-2515" width="174" height="57" ry="10" fill="url(#linearGradient456)"/><path d="m767 2482-6-16.109h6z" fill-opacity=".2"/><path d="m593 2482 6-16.109h-6z" fill-opacity=".2"/><rect transform="scale(-1)" x="-767" y="-2139" width="174" height="56" ry="10" fill="url(#linearGradient455)"/><path d="m767 2115.9-6 16.109h6z" fill-opacity=".2"/><path x="1400" y="305" width="10" height="65" d="m543 2257.4-4.9879-.3488a5 5 0 01-4.639-5.3366l3.8366-54.866a5 5 0 015.3366-4.639l4.9878.3488z" fill="#211f23"/><path x="1400" y="305" width="10" height="65" d="m817 2340.6 4.9878.3488a5 5 0 014.6391 5.3366l-3.8366 54.866a5 5 0 01-5.3367 4.639l-4.9878-.3488z" fill="#211f23"/><path x="1400" y="305" width="10" height="65" d="m816 2267h5a5 5 0 015 5v55a5 5 0 01-5 5h-5z" fill="#211f23"/><path x="1400" y="305" width="10" height="65" d="m817 2257.4 4.9878-.3488a5 5 0 004.639-5.3366l-3.8365-54.866a5 5 0 00-5.3366-4.639l-4.9878.3488z" fill="#211f23"/><circle cx="559.3" cy="2296" r=".88352" fill="#fff" stroke="#000"/><path d="m593 2115.9 6 16.109h-6z" fill-opacity=".2"/><path d="m593 2115.9c-9.3826 1.7815-18.822 3.8149-28 6.1094l-8 24c-5.7273 17.182-17 15-17 153s11.273 135.82 17 153l8 24c9.1781 2.2945 18.617 4.3279 28 6.1094v-13.109c0-1.662 1.338-3 3-3h168c1.662 0 3 1.338 3 3v13.109c9.3826-1.7815 18.822-3.8148 28-6.1094l8-24c5.7273-17.182 17-15 17-153s-11.273-135.82-17-153l-8-24c-9.1781-2.2945-18.617-4.3279-28-6.1094v13.109c0 1.662-1.338 3-3 3h-168c-1.662 0-3-1.338-3-3z" fill="url(#radialGradient334)"/><path d="m680 2154c-81 0-100 6-111 17-10 10-17 25-17 128s7 118 17 128c11 11 30 17 111 17s100-6 111-17c10-10 17-25 17-128s-7-118-17-128c-11-11-30-17-111-17z" fill="url(#linearGradient454)" stroke="url(#radialGradient454)" stroke-dashoffset=".2" stroke-linecap="round" stroke-linejoin="round" stroke-miterlimit="3.2"/><path d="m680 2159c-61 0-95 2-108 15-17.507 17.507-15 85-15 125s-2.5071 107.49 15 125c13 13 47 15 108 15s95-2 108-15c17.507-17.507 15-85 15-125s2.5071-107.49-15-125c-13-13-47-15-108-15z" stroke="#242424" stroke-dashoffset=".2" stroke-linecap="round" stroke-linejoin="round" stroke-miterlimit="3.2"/><path d="m593 2115.9c-9.3826 1.7815-18.822 3.8149-28 6.1094l-8 24c-5.7273 17.182-17 15-17 153s11.273 135.82 17 153l8 24c9.1781 2.2945 18.617 4.3279 28 6.1094v-13.109c0-1.662 1.338-3 3-3h168c1.662 0 3 1.338 3 3v13.109c9.3826-1.7815 18.822-3.8148 28-6.1094l8-24c5.7273-17.182 17-15 17-153s-11.273-135.82-17-153l-8-24c-9.1781-2.2945-18.617-4.3279-28-6.1094v13.109c0 1.662-1.338 3-3 3h-168c-1.662 0-3-1.338-3-3zm-2 2.4824v10.627c0 2.7354 2.2646 5 5 5h168c2.7354 0 5-2.2646 5-5v-10.627c8.2074 1.5947 16.433 3.3499 24.463 5.3359l7.6406 22.924c2.9962 8.9885 7.0887 12.316 10.578 30.93 3.4894 18.614 6.3184 52.492 6.3184 121.44s-2.8289 102.82-6.3184 121.44-7.582 21.941-10.578 30.93l-7.6406 22.924c-8.03 1.9861-16.256 3.7413-24.463 5.3359v-10.627c0-2.7354-2.2646-5-5-5h-168c-2.7354 0-5 2.2646-5 5v10.627c-8.2074-1.5947-16.433-3.3498-24.463-5.3359l-7.6406-22.924c-2.9962-8.9885-7.0887-12.316-10.578-30.93s-6.3184-52.492-6.3184-121.44 2.8289-102.82 6.3184-121.44c3.4894-18.614 7.582-21.941 10.578-30.93l7.6406-22.924c8.03-1.9861 16.256-3.7413 24.463-5.3359z" fill="url(#linearGradient453)"/></g></svg>
