<?xml version="1.0" encoding="UTF-8"?>
<!-- Created with Inkscape (http://www.inkscape.org/) -->
<svg width="221.01" height="403" version="1.1" viewBox="0 0 221.01 403" xml:space="preserve" xmlns="http://www.w3.org/2000/svg" xmlns:xlink="http://www.w3.org/1999/xlink"><defs><linearGradient id="linearGradient93" x1="1374" x2="1374" y1="143" y2="241" gradientTransform="matrix(3.2,0,0,3.2,-3686.4,1253.8)" gradientUnits="userSpaceOnUse"><stop stop-color="#e8e8e8" offset="0"/><stop stop-color="#f8f8f8" offset=".38182"/><stop stop-color="#959ca0" offset="1"/></linearGradient><linearGradient id="linearGradient167" x1="-572" x2="-572" y2="128" gradientTransform="matrix(3.2,0,0,3.2,2457.6,1663.4)" gradientUnits="userSpaceOnUse"><stop stop-color="#9d9d9d" offset="0"/><stop stop-color="#fff" offset=".071429"/><stop stop-color="#9d9d9d" offset=".19048"/><stop stop-color="#9d9d9d" offset=".78571"/><stop stop-color="#fff" offset=".86508"/><stop stop-color="#9d9d9d" offset="1"/></linearGradient><linearGradient id="linearGradient2" x1="1374" x2="1374" y1="143" y2="241" gradientTransform="matrix(3.2,0,0,3.2,-3686.4,1253.8)" gradientUnits="userSpaceOnUse"><stop stop-color="#fafafa" offset="0"/><stop stop-color="#adadad" offset="1"/></linearGradient></defs><g transform="translate(-499 -1667)"><rect x="503" y="1782" width="19" height="51" ry="3.2" fill="#deddda"/><path d="m700 1782c-1.59 0-3 1.428-3 3.203v44.852c0 1.516 1.41 2.945 3.16 2.945h5.84v7h-5.84c-1.75-.334-3.16 1.095-3.16 2.87v51.259c0 1.442 1.41 2.871 3.16 2.871h5.84v7h-5.84c-1.75-.26-3.16 1.169-3.16 2.944v44.852c0 1.775 1.41 3.204 3.16 3.204h12.66c1.76 0 3.18-1.429 3.18-3.204v-44.852c.17-1.775-1.25-3.204-3-3.204v-6.407c1.58 0 3-1.429 3-3.204v-51.259c.17-1.775-1.25-3.204-3-3.204v-6.407c1.58 0 3-1.429 3-3.204v-44.852c-.01-1.775-1.43-3.203-3.18-3.203z" fill="#deddda"/><path d="m509 1711v314h16.06c7.23-4e-4 12.94-5.7245 12.94-12.817v-13.183h144v13.183c.15 7.0926 5.85 12.804 12.95 12.817h16.05v-314h-16.04c-7.24 0-12.96 5.716-12.96 12.816v9.184h-144v-9.184c-.15-7.1-5.87-12.816-12.97-12.816z" fill="url(#linearGradient93)"/><rect x="518" y="1766" width="182" height="208" ry="14.4"/><path d="m554 1667c-8.87 0-16 7.133-16 15.993v51.007h144v-51.007c0-8.86-7.14-15.993-16-15.993zm-16 332v55.008c0 8.8591 7.13 15.992 16 15.992h112c8.86 4e-4 16-7.132 16-15.992v-55.008z" fill="url(#linearGradient167)"/><path d="m538 1724v10h6zm144 0-6 10h6zm-144 275v13l9-13zm135 0 9 13v-13z" opacity=".3"/><path d="m509 1711v314h16.061c7.23-4e-4 12.939-5.7239 12.939-12.816v-13.184h144v13.184c.15 7.0926 5.8492 12.803 12.949 12.816h16.051v-314h-16.039c-7.24 0-12.961 5.7164-12.961 12.816v9.1836h-144v-9.1836c-.15-7.1-5.8707-12.816-12.971-12.816h-16.029zm2 2h14.029c6.0265 0 10.843 4.8103 10.971 10.859v9.1406a2.0002 2.0002 0 002 2h144a2.0002 2.0002 0 002-2v-9.1836c0-6.0256 4.7737-10.816 10.961-10.816h14.039v310h-14.047c-6.0295-.011-10.825-4.8148-10.953-10.859v-13.141a2.0002 2.0002 0 00-2-2h-144a2.0002 2.0002 0 00-2 2v13.184c0 6.0192-4.7649 10.816-10.939 10.816h-14.061v-310z" fill="url(#linearGradient2)"/></g></svg>
