<?xml version="1.0" encoding="UTF-8"?>
<!-- Created with Inkscape (http://www.inkscape.org/) -->
<svg width="267.8" height="403" version="1.1" viewBox="0 0 267.8 403" xml:space="preserve" xmlns="http://www.w3.org/2000/svg" xmlns:xlink="http://www.w3.org/1999/xlink"><defs><linearGradient id="linearGradient353" x1="62.5" x2="62.5" y1="1" y2="127" gradientTransform="matrix(3.2 0 0 3.2 -69.2 -3.6)" gradientUnits="userSpaceOnUse"><stop stop-color="#bd2000" offset="0"/><stop stop-color="#ff5731" offset=".071429"/><stop stop-color="#bd2000" offset=".19048"/><stop stop-color="#bd2000" offset=".78571"/><stop stop-color="#ff5731" offset=".86508"/><stop stop-color="#bd2000" offset="1"/></linearGradient><linearGradient id="linearGradient354" x1="7240" x2="7240" y1="-368" y2="-40" gradientTransform="translate(-7032.4 406)" gradientUnits="userSpaceOnUse"><stop stop-color="#f62d00" offset="0"/><stop stop-color="#a01a00" offset="1"/></linearGradient><linearGradient id="linearGradient355" x1="6416.8" x2="6417" y1="-363" y2="-45" gradientTransform="translate(-6213.2 406)" gradientUnits="userSpaceOnUse"><stop stop-color="#fd2f00" offset="0"/><stop stop-color="#bd2000" offset=".045324"/><stop stop-color="#bd2000" offset=".95155"/><stop stop-color="#ff5437" offset="1"/></linearGradient><radialGradient id="radialGradient10-2-1-04" cx="70" cy="54.205" r="40.501" gradientTransform="matrix(3.2 0 0 3.9505 -69.16 -41.73)" gradientUnits="userSpaceOnUse"><stop stop-color="#fff" offset="0"/><stop stop-color="#9a9996" offset=".56608"/><stop stop-color="#5e5c64" offset="1"/></radialGradient><linearGradient id="linearGradient1" x1="6348" x2="6348" y1="-343" y2="-66" gradientTransform="translate(-6213.2 406.01)" gradientUnits="userSpaceOnUse"><stop stop-color="#91908d" offset="0"/><stop stop-color="#4c4a50" offset="1"/></linearGradient></defs><path d="m6.4005 117.2h19.2c3.5456 0 6.4 17.236 6.4 45.6v9.6h-26.86c-2.839 0-5.1405-2.3014-5.1405-5.1404v-4.4595c0-28.365 2.8544-45.6 6.4-45.6z" fill="#313032" stroke-width="3.2"/><rect x="39.8" y="53" width="183" height="298" ry="6.4" fill="url(#linearGradient355)"/><path d="m46 53c-3.5456 0-6.3957 2.8548-6.4004 6.4004l-.4004 285.18c0 3.5456 2.8548 6.4004 6.4004 6.4004h170.6c3.5456 0 6.3957-2.8548 6.4004-6.4004l.4004-285.18c0-3.5456-2.8548-6.4004-6.4004-6.4004zm0 2h170.6c2.4721 0 4.4036 1.9284 4.4004 4.4004l-.4004 285.18c0 2.472-1.9283 4.4004-4.4004 4.4004h-170.6c-2.4721 0-4.4036-1.9284-4.4004-4.4004l.4004-285.18c0-2.472 1.9283-4.4004 4.4004-4.4004z" fill="url(#linearGradient354)"/><rect x="58.8" width="144" height="403" ry="10" fill="url(#linearGradient353)"/><path d="m241.8 117c-3.01-.061-5.78 25.103-5.98 52h31.97c-.2-26.836-2.97-52-6.39-52zm-6 58.47v51.53h32v-51.53zm.06 57.673c.39 25.355 3.07 48.857 6.35 48.857h19.2c3.27 0 5.95-23.502 6.35-48.857z" fill="#313032"/><path d="m58.8 55v23h16zm144 0-16 23h16zm-144 272v23l16-23zm128 0 16 23v-23z" fill-opacity=".3"/><path d="m46.84 66.01c50.41-5.081 124.58-3.387 174.75 0 26.76 1.999 33.97 17.728 36.25 44.241 5.21 60.723 3.22 130.24 0 182.52-1.85 26.763-9.72 42.143-36.25 44.237-50.17 3.96-124.34 4.5707-174.52 0-26.7-2.6171-33.94-17.725-36.23-44.237-4.79-55.507-3.72-127.02 0-182.52 1.75-26.758 9.53-41.56 36-44.241z" fill="url(#radialGradient10-2-1-04)"/><rect x="34.8" y="94" width="198" height="215" ry="28"/><path d="m134.3 62.83c-27.115-.21175-62.26.63528-87.465 3.1758-26.47 2.681-34.25 17.482-36 44.24-3.72 55.5-4.79 127.01 0 182.52 2.29 26.512 9.531 41.619 36.23 44.236 50.18 4.5707 124.35 3.96 174.52 0 26.53-2.094 34.4-17.473 36.25-44.236 3.22-52.28 5.21-121.8 0-182.52-2.28-26.513-9.49-42.241-36.25-44.24-25.085-1.6935-60.17-2.964-87.285-3.1758zm-.025 3.1699c27.024.21104 62.042 1.4764 87.074 3.166v.002c25.324 1.8946 31.161 16.219 33.322 41.35 5.1878 60.464 3.2108 129.83 0 182.03-1.753 25.306-8.214 39.304-33.336 41.287-49.998 3.9464-124.03 4.5524-173.96.01-25.355-2.4869-31.207-16.231-33.377-41.356-4.7687-55.26-3.708-126.66 0-182.04v-.006c1.6548-25.302 8.008-38.747 33.156-41.295 25.049-2.5248 60.089-3.3693 87.121-3.1582z" fill="url(#linearGradient1)"/></svg>
